<svg width="98" height="10" viewBox="0 0 98 10" fill="none" xmlns="http://www.w3.org/2000/svg">
<path d="M13.746 4.23857C13.746 4.79404 13.5991 5.29525 13.3054 5.74218C13.0117 6.18273 12.6222 6.51154 12.137 6.72862L12.1753 6.80524L13.6981 10.004C13.7045 10.0295 13.7013 10.0551 13.6885 10.0806C13.6757 10.1062 13.6534 10.1189 13.6215 10.1189H11.6773C11.6454 10.1189 11.6198 10.103 11.6007 10.071L10.1258 6.97763H1.98525V10.0423C1.98525 10.0615 1.97567 10.0806 1.95652 10.0998C1.94375 10.1125 1.92459 10.1189 1.89906 10.1189H0.146441C0.127287 10.1189 0.108133 10.1125 0.0889785 10.0998C0.076209 10.0806 0.0698242 10.0615 0.0698242 10.0423V0.627993C0.0698242 0.602454 0.076209 0.5833 0.0889785 0.57053C0.108133 0.551376 0.127287 0.541799 0.146441 0.541799H11.0165C11.7699 0.541799 12.4115 0.809958 12.9415 1.34628C13.4778 1.87621 13.746 2.52107 13.746 3.28086V4.23857ZM1.98525 5.33036H11.0165C11.2399 5.33036 11.4315 5.25055 11.5911 5.09093C11.7507 4.93132 11.8305 4.73658 11.8305 4.50673V3.00312C11.8305 2.77965 11.7507 2.58811 11.5911 2.42849C11.4315 2.26887 11.2399 2.18906 11.0165 2.18906H1.98525V5.33036ZM25.3726 1.26966C25.8834 0.784419 26.4644 0.541799 27.1156 0.541799H30.9369C30.9624 0.541799 30.9816 0.551376 30.9944 0.57053C31.0135 0.5833 31.0231 0.602454 31.0231 0.627993V10.0423C31.0231 10.0615 31.0135 10.0806 30.9944 10.0998C30.9816 10.1125 30.9624 10.1189 30.9369 10.1189H29.1843C29.1651 10.1189 29.146 10.1125 29.1268 10.0998C29.1141 10.0806 29.1077 10.0615 29.1077 10.0423V2.18906H27.5083C27.2912 2.18906 27.0997 2.26887 26.9337 2.42849L19.2145 10.0998C19.1953 10.1125 19.1762 10.1189 19.157 10.1189H16.7149C16.6766 10.1189 16.651 10.103 16.6383 10.071C16.6255 10.0391 16.6319 10.0104 16.6574 9.98485L25.3726 1.26966ZM33.8962 0.618416C33.8962 0.599262 33.9026 0.5833 33.9154 0.57053C33.9345 0.551376 33.9537 0.541799 33.9729 0.541799H44.8429C45.5963 0.541799 46.238 0.809958 46.7679 1.34628C47.3042 1.87621 47.5724 2.51788 47.5724 3.27128V4.22899C47.5724 4.98878 47.3042 5.63683 46.7679 6.17315C46.238 6.70308 45.5963 6.96805 44.8429 6.96805H35.8117V10.0327C35.8117 10.0583 35.8021 10.0806 35.7829 10.0998C35.7702 10.1125 35.751 10.1189 35.7255 10.1189H33.9729C33.9537 10.1189 33.9345 10.1125 33.9154 10.0998C33.9026 10.0806 33.8962 10.0583 33.8962 10.0327V0.618416ZM44.8429 5.33036C45.0664 5.33036 45.2579 5.25055 45.4175 5.09093C45.5771 4.92493 45.657 4.7302 45.657 4.50673V3.00312C45.657 2.77327 45.5771 2.57853 45.4175 2.41892C45.2579 2.2593 45.0664 2.17949 44.8429 2.17949H35.8117V5.33036H44.8429ZM50.4455 0.627993C50.4455 0.602454 50.4519 0.5833 50.4647 0.57053C50.4838 0.551376 50.503 0.541799 50.5221 0.541799H64.045C64.0642 0.541799 64.0802 0.551376 64.0929 0.57053C64.1121 0.5833 64.1217 0.602454 64.1217 0.627993V2.10287C64.1217 2.12203 64.1121 2.14118 64.0929 2.16033C64.0802 2.1731 64.0642 2.17949 64.045 2.17949H58.2413V10.0327C58.2413 10.0583 58.2317 10.0806 58.2126 10.0998C58.1998 10.1125 58.1838 10.1189 58.1647 10.1189H56.4121C56.3865 10.1189 56.3642 10.1125 56.345 10.0998C56.3323 10.0806 56.3259 10.0583 56.3259 10.0327V2.17949H50.5221C50.503 2.17949 50.4838 2.1731 50.4647 2.16033C50.4519 2.14118 50.4455 2.12203 50.4455 2.10287V0.627993ZM68.9102 3.00312C68.9102 2.77965 68.99 2.58811 69.1497 2.42849C69.3093 2.26249 69.504 2.17949 69.7339 2.17949H80.5943C80.6199 2.17949 80.639 2.1731 80.6518 2.16033C80.6709 2.14118 80.6805 2.12203 80.6805 2.10287V0.627993C80.6805 0.602454 80.6709 0.5833 80.6518 0.57053C80.639 0.551376 80.6199 0.541799 80.5943 0.541799H69.7339C68.9741 0.541799 68.326 0.809958 67.7897 1.34628C67.2598 1.87621 66.9948 2.52107 66.9948 3.28086V7.37987C66.9948 8.13965 67.2598 8.78771 67.7897 9.32403C68.326 9.85396 68.9741 10.1189 69.7339 10.1189H80.5943C80.6199 10.1189 80.639 10.1125 80.6518 10.0998C80.6709 10.0806 80.6805 10.0583 80.6805 10.0327V8.55786C80.6805 8.5387 80.6709 8.52274 80.6518 8.50997C80.639 8.49082 80.6199 8.48124 80.5943 8.48124H69.7339C69.504 8.48124 69.3093 8.40143 69.1497 8.24181C68.99 8.07581 68.9102 7.88107 68.9102 7.65761V6.154H79.2248C79.2503 6.154 79.2695 6.14761 79.2823 6.13484C79.3014 6.11569 79.311 6.09334 79.311 6.0678V4.59292C79.311 4.56739 79.3014 4.54823 79.2823 4.53546C79.2695 4.51631 79.2503 4.50673 79.2248 4.50673H68.9102V3.00312ZM85.4787 3.00312C85.4787 2.77965 85.5585 2.58811 85.7181 2.42849C85.8777 2.26249 86.0724 2.17949 86.3023 2.17949H97.1628C97.1883 2.17949 97.2074 2.1731 97.2202 2.16033C97.2394 2.14118 97.2489 2.12203 97.2489 2.10287V0.627993C97.2489 0.602454 97.2394 0.5833 97.2202 0.57053C97.2074 0.551376 97.1883 0.541799 97.1628 0.541799H86.3023C85.5425 0.541799 84.8945 0.809958 84.3581 1.34628C83.8282 1.87621 83.5632 2.52107 83.5632 3.28086V7.37987C83.5632 8.13965 83.8282 8.78771 84.3581 9.32403C84.8945 9.85396 85.5425 10.1189 86.3023 10.1189H97.1628C97.1883 10.1189 97.2074 10.1125 97.2202 10.0998C97.2394 10.0806 97.2489 10.0583 97.2489 10.0327V8.55786C97.2489 8.5387 97.2394 8.52274 97.2202 8.50997C97.2074 8.49082 97.1883 8.48124 97.1628 8.48124H86.3023C86.0724 8.48124 85.8777 8.40143 85.7181 8.24181C85.5585 8.07581 85.4787 7.88107 85.4787 7.65761V6.154H95.7932C95.8188 6.154 95.8379 6.14761 95.8507 6.13484C95.8698 6.11569 95.8794 6.09334 95.8794 6.0678V4.59292C95.8794 4.56739 95.8698 4.54823 95.8507 4.53546C95.8379 4.51631 95.8188 4.50673 95.7932 4.50673H85.4787V3.00312Z" fill="white"/>
</svg>
